<svg
   xmlns:dc="http://purl.org/dc/elements/1.1/"
   xmlns:cc="http://creativecommons.org/ns#"
   xmlns:rdf="http://www.w3.org/1999/02/22-rdf-syntax-ns#"
   xmlns:svg="http://www.w3.org/2000/svg"
   xmlns="http://www.w3.org/2000/svg"
   xmlns:sodipodi="http://sodipodi.sourceforge.net/DTD/sodipodi-0.dtd"
   xmlns:inkscape="http://www.inkscape.org/namespaces/inkscape"
   version="1.1"
   x="0px"
   y="0px"
   viewBox="0 0 79.999969 64.00042"
   id="svg10"
   sodipodi:docname="home.svg"
   inkscape:version="0.92.3 (2405546, 2018-03-11)">
  <metadata
     id="metadata16">
    <rdf:RDF>
      <cc:Work
         rdf:about="">
        <dc:format>image/svg+xml</dc:format>
        <dc:type
           rdf:resource="http://purl.org/dc/dcmitype/StillImage" />
        <dc:title></dc:title>
      </cc:Work>
    </rdf:RDF>
  </metadata>
  <defs
     id="defs14" />
  <sodipodi:namedview
     pagecolor="#ffffff"
     bordercolor="#666666"
     borderopacity="1"
     objecttolerance="10"
     gridtolerance="10"
     guidetolerance="10"
     inkscape:pageopacity="0"
     inkscape:pageshadow="2"
     inkscape:window-width="1638"
     inkscape:window-height="738"
     id="namedview12"
     showgrid="false"
     inkscape:zoom="1.888"
     inkscape:cx="39.999984"
     inkscape:cy="19.50022"
     inkscape:window-x="67"
     inkscape:window-y="0"
     inkscape:window-maximized="0"
     inkscape:current-layer="svg10" />
  <g
     transform="translate(-10.000016,-970.36198)"
     id="g4">
    <path
       style="color:#000000;text-indent:0;text-transform:none;direction:ltr;baseline-shift:baseline;display:inline;overflow:visible;visibility:visible;fill:#000000;fill-opacity:1;stroke:none;enable-background:accumulate"
       d="m 50.053877,970.36242 c 0.41963,0.009 0.81114,0.14803 1.1875,0.40625 l 38,30.00003 c 0.87429,0.7021 0.99833,1.9978 0.34375,2.8438 -0.64516,0.8337 -2.01747,0.9672 -2.84375,0.3125 l -36.75,-29.00008 -36.75,29.00008 c -0.82628,0.6547 -2.16085,0.5162 -2.8125,-0.3125 -0.6467602,-0.8225 -0.5772202,-2.1889 0.3125,-2.8438 l 14.25,-11.25003 v -17.15625 a 2.0002,2.0002 0 0 1 2,-2 h 8 a 2.0002,2.0002 0 0 1 2,2 v 7.6875 l 11.75,-9.28125 c 0.44512,-0.29323 0.89287,-0.415 1.3125,-0.40625 z m -17.0625,4 h -4 v 12 l 4,-3.15625 z m 42,22.90625 4,3.15623 v 31.9375 a 2.0001999,2.0001999 0 0 1 -2,2 h -17 a 2.0001999,2.0001999 0 0 1 -2,-2 v -17.9999 h -16 v 17.9999 a 2.0001999,2.0001999 0 0 1 -2,2 h -17 a 2.0001999,2.0001999 0 0 1 -2,-2 v -31.9375 l 4,-3.15623 v 33.09373 h 13 v -17.9999 a 2.0001999,2.0001999 0 0 1 2,-2 h 20 a 2.0001999,2.0001999 0 0 1 2,2 v 17.9999 h 13 z"
       marker="none"
       visibility="visible"
       display="inline"
       overflow="visible"
       id="path2"
       inkscape:connector-curvature="0" />
  </g>
</svg>
