<?xml version="1.0" encoding="UTF-8" standalone="no"?>
<svg
   xmlns:dc="http://purl.org/dc/elements/1.1/"
   xmlns:cc="http://creativecommons.org/ns#"
   xmlns:rdf="http://www.w3.org/1999/02/22-rdf-syntax-ns#"
   xmlns:svg="http://www.w3.org/2000/svg"
   xmlns="http://www.w3.org/2000/svg"
   xmlns:sodipodi="http://sodipodi.sourceforge.net/DTD/sodipodi-0.dtd"
   xmlns:inkscape="http://www.inkscape.org/namespaces/inkscape"
   version="1.1"
   x="0px"
   y="0px"
   viewBox="0 0 66 66"
   xml:space="preserve"
   id="svg8"
   sodipodi:docname="success.svg"
   inkscape:version="0.92.3 (2405546, 2018-03-11)"><metadata
     id="metadata14"><rdf:RDF><cc:Work
         rdf:about=""><dc:format>image/svg+xml</dc:format><dc:type
           rdf:resource="http://purl.org/dc/dcmitype/StillImage" /></cc:Work></rdf:RDF></metadata><defs
     id="defs12" /><sodipodi:namedview
     pagecolor="#ffffff"
     bordercolor="#666666"
     borderopacity="1"
     objecttolerance="10"
     gridtolerance="10"
     guidetolerance="10"
     inkscape:pageopacity="0"
     inkscape:pageshadow="2"
     inkscape:window-width="708"
     inkscape:window-height="480"
     id="namedview10"
     showgrid="false"
     inkscape:zoom="1.888"
     inkscape:cx="32"
     inkscape:cy="22.5"
     inkscape:window-x="0"
     inkscape:window-y="27"
     inkscape:window-maximized="0"
     inkscape:current-layer="g6" /><g
     id="g6"
     transform="translate(-18,-19)"><path
       d="M 51,19 C 32.8,19 18,33.8 18,52 18,70.2 32.8,85 51,85 69.2,85 84,70.2 84,52 84,33.8 69.2,19 51,19 Z m 0,62 C 35,81 22,68 22,52 22,36 35,23 51,23 67,23 80,36 80,52 80,68 67,81 51,81 Z"
       id="path2"
       inkscape:connector-curvature="0" /><path
       d="M 64.3,43.3 45.8,61.7 c -0.1,0.1 -0.3,0.1 -0.4,0 L 37.7,54 c -0.8,-0.8 -2,-0.8 -2.8,0 -0.8,0.8 -0.8,2 0,2.8 l 7.7,7.7 c 0.8,0.8 1.9,1.3 3,1.3 1.2,0 2.2,-0.4 3,-1.3 L 67.1,46 c 0.8,-0.8 0.8,-2 0,-2.8 -0.8,-0.8 -2,-0.7 -2.8,0.1 z"
       id="path4"
       inkscape:connector-curvature="0" /></g></svg>
