<svg id="Layer_1" data-name="Layer 1" xmlns="http://www.w3.org/2000/svg" xmlns:xlink="http://www.w3.org/1999/xlink" viewBox="0 0 70.87 70.87"><defs><style>.cls-1{fill:none;}.cls-2{clip-path:url(#clip-path);}.cls-3{fill:#1d1d1b;}</style><clipPath id="clip-path"><rect class="cls-1" y="11.07" width="70.87" height="48.72"/></clipPath></defs><title>icons-collected</title><g class="cls-2"><path class="cls-3" d="M35.43,11.07C15.86,11.07,0,22,0,35.43S15.86,59.79,35.43,59.79,70.87,48.89,70.87,35.43,55,11.07,35.43,11.07Zm0,44.29c-17.13,0-31-8.92-31-19.93s13.88-19.93,31-19.93,31,8.92,31,19.93S52.56,55.36,35.43,55.36Z"/><path class="cls-3" d="M35.43,22.14A13.29,13.29,0,1,0,48.72,35.43,13.29,13.29,0,0,0,35.43,22.14Zm0,22.15a8.86,8.86,0,1,1,8.86-8.86A8.86,8.86,0,0,1,35.43,44.29Z"/></g></svg>